PathFileType	4	(X/Y/Z)	Patient4_TMGait_0pt3_01_right_13.trc.trc
DataRate	CameraRate	NumFrames	NumMarkers	Units	OrigDataRate	OrigDataStartFrame	OrigNumFrames
55.118110236220	55.118110236220	4	33	mm	55.118110236220	71	       141
Frame#	Time	Sacral			L.Shoulder			Chest			R.Shoulder			Neck			R.ASIS			L.ASIS			R.Thigh.Superior			R.Thigh.Lateral			R.Thigh.Inferior			R.Patella			L.Thigh.Superior			L.Thigh.Lateral			L.Thigh.Inferior			L.Patella			L.Shank.Superior			L.Shank.Lateral			L.Shank.Inferior			R.Shank.Superior			R.Shank.Lateral			R.Shank.Inferior			R.Heel			R.Midfoot.Superior			R.Midfoot.Lateral			R.Toe			L.Heel			L.Midfoot.Lateral			L.Midfoot.Superior			L.Toe			L.Elbow			L.Wrist			R.Elbow			R.Wrist			
		X1	Y1	Z1	X2	Y2	Z2	X3	Y3	Z3	X4	Y4	Z4	X5	Y5	Z5	X6	Y6	Z6	X7	Y7	Z7	X8	Y8	Z8	X9	Y9	Z9	X10	Y10	Z10	X11	Y11	Z11	X12	Y12	Z12	X13	Y13	Z13	X14	Y14	Z14	X15	Y15	Z15	X16	Y16	Z16	X17	Y17	Z17	X18	Y18	Z18	X19	Y19	Z19	X20	Y20	Z20	X21	Y21	Z21	X22	Y22	Z22	X23	Y23	Z23	X24	Y24	Z24	X25	Y25	Z25	X26	Y26	Z26	X27	Y27	Z27	X28	Y28	Z28	X29	Y29	Z29	X30	Y30	Z30	X31	Y31	Z31	X32	Y32	Z32	X33	Y33	Z33	

71	24.500000000000	724.916144582007	1002.317591412872	570.358336506856	890.193632036098	1425.296204435123	371.195264627555	1004.544961047245	1359.068643670794	525.225371269922	934.954679017410	1436.800252992548	702.654429833300	890.963685641330	1490.038142417707	528.158931512062	958.709041666480	933.381423678245	671.340629122879	928.746412071982	957.046256898593	397.289277699393	958.836406976728	720.365401726342	637.976745308533	857.220877101899	623.237439826939	697.811759368550	918.447204274474	560.725091779825	616.034395747032	899.039208836488	475.989805199451	620.112966409145	998.856010866495	763.551711389751	426.907254703006	940.712051523473	639.517773209090	348.502581755851	1036.608890430144	574.556445353905	414.547139758960	1058.495579431280	510.663205683030	413.082032864827	1041.130457264313	439.755620510823	400.378095641234	976.687807399814	312.038004153808	341.449884029010	1057.744561936181	209.895039221829	401.041921929609	858.789585283443	391.663949339303	625.501661891181	770.422050039990	298.098917312010	680.672806929156	801.626135985724	199.709117987431	618.101077264434	651.119893714627	43.705637406193	573.413984257211	816.868476333961	94.671366034502	629.030142246625	723.589115501495	36.797120371287	658.241719999358	931.282243115005	41.311682399361	676.336912329535	963.625209640213	37.916285498082	429.658158935992	1044.331710984158	37.351462478011	356.210143060402	1118.929923625381	108.464661575344	384.308535426389	1251.436372538387	68.661617828478	369.430567185764	750.455143010326	1100.701236505168	279.201520904123	717.728278031891	842.406105053492	286.377681402123	1064.541406174985	1131.779345580660	832.112316113891	1289.098398737421	1230.275884667685	781.816913487211	
72	24.518142857143	726.411995698236	1001.171597895660	568.039649201676	889.962304355556	1424.019391881644	367.487839983409	1005.214247736093	1358.214103847099	521.027836516714	936.309284608945	1435.934294548605	698.682892886959	891.417067744730	1489.012048870946	524.357817369944	960.673392093096	932.309320367004	668.038239294793	929.471533126020	955.834443676768	394.164281988619	958.852417336753	718.957902437427	635.291062074411	856.244952687055	622.743903549668	695.752536125222	916.409456795261	559.472265508252	614.046318085068	896.017253872844	475.059902933958	618.242220570729	999.357898204457	761.754239485973	422.567458560120	938.467188638065	637.480837883976	346.116878234840	1035.471731454657	572.937076139053	410.756415236479	1056.093154046259	508.893938383877	410.228207381392	1039.407906469317	437.845938840935	397.911168461311	974.749006237176	309.898564947144	340.280874750067	1056.262118702483	208.340394556539	399.945834002168	855.294899451682	391.003214826863	624.077908296551	766.450807996271	298.170000929673	679.917337377932	796.825467317472	199.428629656537	617.602027854794	645.616125082711	43.748170882280	573.442706416693	811.385840768107	94.672348242040	628.939997379034	718.107468340833	36.812919984645	658.266047296656	925.772905761592	41.268249291835	676.317159364638	961.941272022002	37.638987981947	430.020393970845	1041.837194572338	36.917198195525	355.612099439986	1117.278561456373	106.942959385719	383.528744258152	1249.260702059098	65.969517222085	367.039489749334	749.839455656970	1099.550729599179	276.760106858414	719.189701104986	840.702571077161	283.488480275124	1070.303802642956	1132.435388361791	826.506389364088	1292.284215030643	1235.417187367346	774.166155335785	
73	24.536285714286	728.004151618362	1000.135207596153	565.435205596299	889.968705435428	1422.727236958801	363.494626176018	1006.070797708471	1357.382152795362	516.606490151870	937.798725945958	1435.177708353069	694.439888444055	892.041912168568	1488.038114254194	520.231050968049	962.668786608793	931.292345029155	664.562222940829	930.378152294220	954.737779203182	390.875012458163	959.166442059992	717.621665895727	632.533895460013	855.644152899053	622.258209296892	693.523985712521	914.930844635121	558.259687325354	611.954082753572	893.624547457030	474.044242857947	616.267094271924	1000.376847917489	760.439572576389	418.698918438916	937.394327977991	635.824396828185	344.084163245905	1035.325065308376	571.796255494673	407.618420904399	1054.591123070346	507.253657776399	407.944155648101	1038.279686510638	435.935802713095	395.900634992057	972.742920410654	308.183507716392	339.351581215263	1053.882325238139	206.691095343353	399.223835607947	852.264525911106	390.314727655497	622.578923499669	762.820335622221	298.361705089575	679.122463557349	792.224654234779	199.205538036831	617.098170178397	640.153241518555	43.976380734613	573.497898772817	805.973305453501	94.715114082883	628.874429471932	712.673679532821	36.923571020725	658.296427262438	920.303680613901	41.143726396610	676.323596328434	958.329115930261	37.533357079779	430.605831829901	1037.369829567764	36.596559093195	355.177299789271	1113.899860646069	105.283115938874	383.018314976919	1245.266350974354	62.836904808709	364.726976101019	750.282039228914	1097.942811395534	273.921331550210	722.755701119796	838.466373983354	280.133890959444	1075.378941081054	1132.854158004516	820.788896100217	1295.213080215034	1239.276497718289	766.617666127141	
74	24.554428571429	729.645123396588	999.312059168358	562.549838802507	890.216869425263	1421.514014650900	359.260748881928	1007.126042139996	1356.632195758547	511.988620497874	939.469894038959	1434.603300544021	689.960421703991	892.858442555696	1487.193079299399	515.821572147159	964.627401109410	930.394209915138	660.929206472051	931.437007374435	953.842903243656	387.418335548834	959.667255380921	716.422845971344	629.708586061944	855.319368801226	621.849259241168	691.144853794485	913.920791403641	557.152102134472	609.774816277835	891.783070300198	473.004654623433	614.227986756419	1001.866947457887	759.684834557595	415.361607860760	937.528881848795	634.653934542167	342.310456991451	1036.099671749284	571.149357604065	405.117670740345	1053.984245900059	505.848095578451	406.197829728294	1037.787658994267	434.162524649625	394.327972688920	970.955594219522	306.922181746319	338.528150777011	1050.962249491837	205.065138568687	398.833937221850	849.644222279140	389.660453405823	621.035086574108	759.480935823955	298.723099434929	678.293693519364	787.814736228404	199.092421402145	616.606033649492	634.738799731219	44.446740698144	573.586605911203	800.651955966605	94.813273389235	628.845454677389	707.296919423284	37.160635263850	658.337076995410	914.886450376818	40.934962203113	676.357992232069	953.376464216854	37.533178016592	431.267592039207	1031.629466825270	36.360405431467	354.889492888846	1109.330918977763	103.623965007498	382.783350984625	1240.074729971381	59.611664385240	362.746060268247	751.651819017823	1096.042023638528	270.692937354416	728.349051685820	835.910447093464	276.286649004670	1079.841904833073	1133.110386831881	815.004791991005	1298.036574966224	1241.899466115068	759.197107100808	
